<svg width="496" height="280" viewBox="0 0 496 280" fill="none" xmlns="http://www.w3.org/2000/svg">
<rect width="496" height="280" fill="#E9B10C"/>
<path d="M111.359 60.9062C111.359 59.8646 111.505 58.8021 111.797 57.7188C112.109 56.6354 112.526 55.5833 113.047 54.5625C113.589 53.5417 114.224 52.5729 114.953 51.6562C115.703 50.7396 116.526 49.9479 117.422 49.2812C118.339 48.5938 119.307 48.0625 120.328 47.6875C121.37 47.2917 122.443 47.0938 123.547 47.0938C124.026 47.0938 124.641 47.1458 125.391 47.25C126.161 47.3542 126.901 47.5312 127.609 47.7812C128.339 48.0312 128.953 48.3646 129.453 48.7812C129.974 49.1771 130.234 49.6562 130.234 50.2188C130.234 50.2604 130.224 50.3021 130.203 50.3438C130.203 50.3646 130.203 50.3958 130.203 50.4375C130.182 50.4792 130.172 50.5208 130.172 50.5625C130.13 50.625 130.026 50.75 129.859 50.9375C129.693 51.1042 129.578 51.2083 129.516 51.25C129.474 51.2708 129.422 51.2812 129.359 51.2812C129.297 51.3021 129.234 51.3125 129.172 51.3125C129.089 51.3125 129.026 51.3021 128.984 51.2812C128.943 51.2812 128.901 51.2708 128.859 51.25C128.755 51.1875 128.505 51.0625 128.109 50.875C127.714 50.6667 127.286 50.4479 126.828 50.2188C126.37 49.9896 125.943 49.7812 125.547 49.5938C125.151 49.3854 124.901 49.2604 124.797 49.2188C124.714 49.2188 124.63 49.2083 124.547 49.1875C124.484 49.1875 124.422 49.1875 124.359 49.1875C124.297 49.1667 124.245 49.1562 124.203 49.1562C123.224 49.1562 122.286 49.3333 121.391 49.6875C120.495 50.0417 119.672 50.5312 118.922 51.1562C118.172 51.7812 117.495 52.5 116.891 53.3125C116.286 54.125 115.766 54.9896 115.328 55.9062C114.911 56.8021 114.589 57.7292 114.359 58.6875C114.151 59.625 114.047 60.5417 114.047 61.4375C114.047 62.6042 114.234 63.6458 114.609 64.5625C114.984 65.4792 115.505 66.25 116.172 66.875C116.839 67.4792 117.63 67.9375 118.547 68.25C119.484 68.5625 120.495 68.7188 121.578 68.7188C122.203 68.7188 122.974 68.6354 123.891 68.4688C124.807 68.3021 125.682 68.0312 126.516 67.6562C127.37 67.2812 128.089 66.8021 128.672 66.2188C129.255 65.6146 129.547 64.875 129.547 64C129.547 63.6458 129.495 63.375 129.391 63.1875C129.286 62.9792 129.141 62.8333 128.953 62.75C128.766 62.6458 128.536 62.5938 128.266 62.5938C127.995 62.5729 127.714 62.5625 127.422 62.5625C126.964 62.5625 126.568 62.6354 126.234 62.7812C125.901 62.9271 125.568 63.0938 125.234 63.2812C124.922 63.4688 124.599 63.6354 124.266 63.7812C123.953 63.9271 123.578 64 123.141 64C122.599 64 122.172 63.9167 121.859 63.75C121.547 63.5833 121.391 63.1979 121.391 62.5938C121.391 62.0104 121.599 61.5417 122.016 61.1875C122.453 60.8125 122.964 60.5312 123.547 60.3438C124.151 60.1562 124.776 60.0312 125.422 59.9688C126.068 59.9062 126.599 59.875 127.016 59.875C127.766 59.875 128.464 59.9375 129.109 60.0625C129.755 60.1667 130.307 60.375 130.766 60.6875C131.245 60.9792 131.609 61.3958 131.859 61.9375C132.109 62.4583 132.234 63.1354 132.234 63.9688C132.234 65.2604 131.88 66.3854 131.172 67.3438C130.464 68.2812 129.568 69.0521 128.484 69.6562C127.422 70.2604 126.266 70.7188 125.016 71.0312C123.786 71.3229 122.641 71.4688 121.578 71.4688C120.078 71.4688 118.693 71.2083 117.422 70.6875C116.172 70.1667 115.099 69.4375 114.203 68.5C113.307 67.5417 112.609 66.4167 112.109 65.125C111.609 63.8125 111.359 62.4062 111.359 60.9062Z" fill="white" fill-opacity="0.95"/>
<path d="M134.109 63.3125C134.109 62.1875 134.245 61.0625 134.516 59.9375C134.786 58.8125 135.214 57.8021 135.797 56.9062C136.401 56.0104 137.172 55.2812 138.109 54.7188C139.068 54.1562 140.224 53.875 141.578 53.875C142.349 53.875 143.026 54.0208 143.609 54.3125C144.193 54.5833 144.682 54.9479 145.078 55.4062C145.474 55.8646 145.766 56.4062 145.953 57.0312C146.161 57.6354 146.266 58.2708 146.266 58.9375C146.266 60 146.016 61.0312 145.516 62.0312C145.036 63.0312 144.38 63.9167 143.547 64.6875C142.734 65.4375 141.797 66.0104 140.734 66.4062C139.672 66.7812 138.589 66.8646 137.484 66.6562C137.505 67.2604 137.703 67.75 138.078 68.125C138.474 68.4792 138.943 68.75 139.484 68.9375C140.026 69.125 140.589 69.25 141.172 69.3125C141.755 69.3542 142.276 69.375 142.734 69.375C143.214 69.375 143.661 69.3333 144.078 69.25C144.495 69.1667 144.911 69.0729 145.328 68.9688C145.745 68.8646 146.161 68.7708 146.578 68.6875C147.016 68.6042 147.474 68.5625 147.953 68.5625C148.141 68.5625 148.328 68.5729 148.516 68.5938C148.703 68.6146 148.88 68.6667 149.047 68.75C149.214 68.8125 149.349 68.9271 149.453 69.0938C149.557 69.2396 149.609 69.4271 149.609 69.6562C149.609 70.0521 149.464 70.3854 149.172 70.6562C148.88 70.9062 148.505 71.125 148.047 71.3125C147.609 71.5 147.12 71.6458 146.578 71.75C146.036 71.8333 145.505 71.9062 144.984 71.9688C144.484 72.0104 144.016 72.0312 143.578 72.0312C143.161 72.0521 142.849 72.0625 142.641 72.0625C141.307 72.0625 140.109 71.8542 139.047 71.4375C137.984 71 137.089 70.4062 136.359 69.6562C135.63 68.8854 135.068 67.9688 134.672 66.9062C134.297 65.8229 134.109 64.625 134.109 63.3125ZM137.422 61.2812C137.422 62.0104 137.516 62.5417 137.703 62.875C137.911 63.2083 138.401 63.375 139.172 63.375C139.714 63.375 140.245 63.2812 140.766 63.0938C141.286 62.8854 141.755 62.6042 142.172 62.25C142.609 61.8958 142.953 61.4792 143.203 61C143.453 60.5208 143.578 60 143.578 59.4375C143.578 59.125 143.547 58.8021 143.484 58.4688C143.443 58.1354 143.339 57.8333 143.172 57.5625C143.005 57.2708 142.786 57.0417 142.516 56.875C142.266 56.6875 141.932 56.5938 141.516 56.5938C140.891 56.5938 140.318 56.7396 139.797 57.0312C139.297 57.3021 138.87 57.6667 138.516 58.125C138.161 58.5625 137.891 59.0625 137.703 59.625C137.516 60.1667 137.422 60.7188 137.422 61.2812Z" fill="white" fill-opacity="0.95"/>
<path d="M150.859 56.25C150.859 56.1875 150.87 56.1354 150.891 56.0938C150.891 56.0521 150.901 56 150.922 55.9375C151.005 55.8333 151.13 55.6979 151.297 55.5312C151.464 55.3646 151.568 55.2812 151.609 55.2812H157.891C157.891 55.0521 157.859 54.6875 157.797 54.1875C157.734 53.6875 157.672 53.1354 157.609 52.5312C157.568 51.9271 157.557 51.3021 157.578 50.6562C157.599 49.9896 157.682 49.3958 157.828 48.875C157.995 48.3333 158.245 47.8958 158.578 47.5625C158.932 47.2083 159.422 47.0312 160.047 47.0312C160.047 49.1354 160.193 50.8229 160.484 52.0938C160.776 53.3646 161.161 54.3438 161.641 55.0312C162.141 55.7188 162.703 56.1667 163.328 56.375C163.953 56.5833 164.589 56.6771 165.234 56.6562C165.901 56.6146 166.547 56.5104 167.172 56.3438C167.797 56.1771 168.349 56.0625 168.828 56C169.328 55.9375 169.724 55.9896 170.016 56.1562C170.307 56.3021 170.453 56.6667 170.453 57.25C170.453 57.6875 170.349 58 170.141 58.1875C169.953 58.375 169.578 58.5208 169.016 58.625C168.849 58.6458 168.568 58.6875 168.172 58.75C167.797 58.7917 167.37 58.8333 166.891 58.875C166.411 58.9167 165.901 58.9688 165.359 59.0312C164.818 59.0729 164.307 59.1146 163.828 59.1562C163.349 59.1979 162.911 59.2292 162.516 59.25C162.12 59.25 161.828 59.25 161.641 59.25C161.641 59.3542 161.63 59.5312 161.609 59.7812C161.589 60.0312 161.578 60.1979 161.578 60.2812C161.578 61.1979 161.724 62.0938 162.016 62.9688C162.307 63.8229 162.62 64.6771 162.953 65.5312C163.307 66.3854 163.63 67.2396 163.922 68.0938C164.214 68.9479 164.359 69.8333 164.359 70.75C164.359 70.9167 164.339 71.0938 164.297 71.2812C164.276 71.4479 164.214 71.6042 164.109 71.75C164.026 71.875 163.891 71.9688 163.703 72.0312C163.536 72.1146 163.297 72.1042 162.984 72C162.193 71.7917 161.599 71.3438 161.203 70.6562C160.828 69.9688 160.547 69.1562 160.359 68.2188C160.172 67.2604 160.047 66.25 159.984 65.1875C159.922 64.125 159.818 63.1354 159.672 62.2188C159.547 61.2812 159.339 60.4896 159.047 59.8438C158.755 59.1771 158.286 58.7708 157.641 58.625L151.609 57.25C151.526 57.25 151.401 57.1667 151.234 57C151.068 56.8125 150.964 56.6771 150.922 56.5938C150.901 56.5521 150.891 56.5 150.891 56.4375C150.87 56.3958 150.859 56.3333 150.859 56.25Z" fill="white" fill-opacity="0.95"/>
<path d="M185.516 55.8438C185.516 55.6562 185.516 55.4688 185.516 55.2812C185.536 55.0729 185.578 54.8854 185.641 54.7188C185.724 54.5312 185.828 54.3958 185.953 54.3125C186.099 54.2083 186.307 54.1562 186.578 54.1562C186.599 54.1562 186.62 54.1562 186.641 54.1562C186.682 54.1562 186.724 54.1562 186.766 54.1562C186.828 54.1771 186.88 54.1875 186.922 54.1875C187.318 54.7292 187.661 55.4271 187.953 56.2812C188.245 57.1146 188.526 58.0104 188.797 58.9688C189.068 59.9062 189.359 60.8646 189.672 61.8438C189.984 62.8021 190.391 63.6667 190.891 64.4375C191.391 65.2083 192.005 65.8229 192.734 66.2812C193.464 66.7396 194.37 66.9375 195.453 66.875C195.932 66.875 196.245 66.6146 196.391 66.0938C196.536 65.5729 196.609 64.9062 196.609 64.0938C196.63 63.2812 196.609 62.3854 196.547 61.4062C196.505 60.4271 196.505 59.5 196.547 58.625C196.609 57.7292 196.766 56.9479 197.016 56.2812C197.286 55.6146 197.745 55.1667 198.391 54.9375C198.661 55.4792 198.88 56.3333 199.047 57.5C199.234 58.6458 199.37 59.9792 199.453 61.5C199.536 63 199.578 64.6354 199.578 66.4062C199.578 68.1562 199.536 69.9062 199.453 71.6562C199.37 73.3854 199.245 75.0521 199.078 76.6562C198.911 78.2604 198.724 79.6667 198.516 80.875C198.307 82.0833 198.057 83.0312 197.766 83.7188C197.495 84.4271 197.203 84.7292 196.891 84.625C196.453 84.2083 196.109 83.6667 195.859 83C195.63 82.3333 195.464 81.5938 195.359 80.7812C195.276 79.9688 195.245 79.1042 195.266 78.1875C195.286 77.2917 195.318 76.3854 195.359 75.4688C195.422 74.5521 195.484 73.6562 195.547 72.7812C195.63 71.9062 195.672 71.1042 195.672 70.375C194.922 70.4375 194.151 70.3229 193.359 70.0312C192.589 69.7396 191.828 69.2917 191.078 68.6875C190.328 68.0625 189.609 67.3125 188.922 66.4375C188.255 65.5625 187.661 64.5729 187.141 63.4688C186.641 62.3646 186.245 61.1771 185.953 59.9062C185.661 58.6146 185.516 57.2604 185.516 55.8438Z" fill="white" fill-opacity="0.95"/>
<path d="M201.453 65.6562C201.453 64.3646 201.755 63.1667 202.359 62.0625C202.964 60.9375 203.755 59.9792 204.734 59.1875C205.734 58.375 206.849 57.7396 208.078 57.2812C209.328 56.8229 210.589 56.5938 211.859 56.5938C212.568 56.5938 213.193 56.8229 213.734 57.2812C214.297 57.7396 214.766 58.3021 215.141 58.9688C215.516 59.6146 215.797 60.3021 215.984 61.0312C216.193 61.7604 216.297 62.3958 216.297 62.9375C216.297 64.1042 216.016 65.2396 215.453 66.3438C214.891 67.4271 214.161 68.3958 213.266 69.25C212.37 70.0833 211.359 70.7604 210.234 71.2812C209.109 71.8021 207.984 72.0625 206.859 72.0625C205.859 72.0625 205.016 71.8958 204.328 71.5625C203.641 71.2083 203.089 70.75 202.672 70.1875C202.255 69.6042 201.943 68.9271 201.734 68.1562C201.547 67.3646 201.453 66.5312 201.453 65.6562ZM204.109 65.9688C204.109 66.5104 204.151 66.9896 204.234 67.4062C204.339 67.8021 204.505 68.1458 204.734 68.4375C204.984 68.7292 205.307 68.9583 205.703 69.125C206.099 69.2708 206.589 69.3438 207.172 69.3438C207.943 69.3438 208.714 69.1354 209.484 68.7188C210.255 68.2812 210.943 67.7396 211.547 67.0938C212.172 66.4271 212.672 65.6979 213.047 64.9062C213.422 64.1146 213.609 63.3438 213.609 62.5938C213.609 62.2604 213.578 61.8958 213.516 61.5C213.453 61.1042 213.349 60.7396 213.203 60.4062C213.057 60.0729 212.849 59.7917 212.578 59.5625C212.307 59.3333 211.964 59.2188 211.547 59.2188C211.172 59.2188 210.724 59.3438 210.203 59.5938C209.703 59.8438 209.172 60.1667 208.609 60.5625C208.068 60.9583 207.526 61.4062 206.984 61.9062C206.464 62.4062 205.984 62.9062 205.547 63.4062C205.109 63.9062 204.755 64.3854 204.484 64.8438C204.234 65.3021 204.109 65.6771 204.109 65.9688Z" fill="white" fill-opacity="0.95"/>
<path d="M217.516 59.25C217.516 59.125 217.516 58.9062 217.516 58.5938C217.536 58.2604 217.547 57.9167 217.547 57.5625C217.547 57.2083 217.547 56.8854 217.547 56.5938C217.568 56.2812 217.578 56.0625 217.578 55.9375C217.724 55.6875 217.891 55.4479 218.078 55.2188C218.286 54.9688 218.495 54.8021 218.703 54.7188C218.932 54.6146 219.172 54.5938 219.422 54.6562C219.693 54.7188 219.964 54.9271 220.234 55.2812V55.9375C220.214 56.0417 220.172 56.2917 220.109 56.6875C220.047 57.0625 219.974 57.4792 219.891 57.9375C219.807 58.3958 219.724 58.8229 219.641 59.2188C219.578 59.5938 219.547 59.8333 219.547 59.9375C219.547 60.3333 219.589 60.8333 219.672 61.4375C219.755 62.0208 219.87 62.6354 220.016 63.2812C220.182 63.9271 220.38 64.5729 220.609 65.2188C220.859 65.8646 221.151 66.4479 221.484 66.9688C221.818 67.4688 222.182 67.8854 222.578 68.2188C222.995 68.5521 223.474 68.7188 224.016 68.7188C224.682 68.7188 225.266 68.5417 225.766 68.1875C226.286 67.8333 226.734 67.375 227.109 66.8125C227.484 66.25 227.786 65.6146 228.016 64.9062C228.266 64.1979 228.464 63.4896 228.609 62.7812C228.755 62.0521 228.859 61.3542 228.922 60.6875C228.984 60.0208 229.016 59.4375 229.016 58.9375C229.016 58.4375 228.974 57.9688 228.891 57.5312C228.828 57.0729 228.745 56.625 228.641 56.1875C228.536 55.75 228.443 55.3229 228.359 54.9062C228.297 54.4688 228.266 54.0312 228.266 53.5938C228.266 53.1979 228.401 52.9167 228.672 52.75C228.964 52.5833 229.286 52.5 229.641 52.5C230.078 52.5 230.432 52.6354 230.703 52.9062C230.974 53.1562 231.182 53.4792 231.328 53.875C231.495 54.2708 231.599 54.7292 231.641 55.25C231.703 55.75 231.734 56.25 231.734 56.75C231.734 57.25 231.724 57.7292 231.703 58.1875C231.682 58.625 231.672 58.9792 231.672 59.25C231.672 59.9583 231.62 60.7604 231.516 61.6562C231.411 62.5521 231.224 63.4792 230.953 64.4375C230.703 65.375 230.38 66.3021 229.984 67.2188C229.609 68.1354 229.141 68.9583 228.578 69.6875C228.036 70.3958 227.401 70.9688 226.672 71.4062C225.964 71.8438 225.161 72.0625 224.266 72.0625C223.328 72.0625 222.505 71.8438 221.797 71.4062C221.089 70.9479 220.484 70.3542 219.984 69.625C219.505 68.875 219.099 68.0312 218.766 67.0938C218.432 66.1562 218.172 65.2188 217.984 64.2812C217.818 63.3438 217.693 62.4375 217.609 61.5625C217.547 60.6667 217.516 59.8958 217.516 59.25Z" fill="white" fill-opacity="0.95"/>
<path d="M233.578 58.875C233.578 58.6875 233.589 58.5 233.609 58.3125C233.63 58.1042 233.672 57.9271 233.734 57.7812C233.797 57.6146 233.891 57.4792 234.016 57.375C234.161 57.2708 234.359 57.2188 234.609 57.2188C234.818 57.2188 235.047 57.3854 235.297 57.7188C235.568 58.0312 235.839 58.4375 236.109 58.9375C236.38 59.4167 236.641 59.9479 236.891 60.5312C237.161 61.1146 237.391 61.6562 237.578 62.1562C237.786 62.6354 237.953 63.0521 238.078 63.4062C238.203 63.7604 238.276 63.9479 238.297 63.9688C238.568 63.2396 238.87 62.4479 239.203 61.5938C239.536 60.7396 239.943 59.9479 240.422 59.2188C240.922 58.4688 241.505 57.8438 242.172 57.3438C242.859 56.8438 243.693 56.5938 244.672 56.5938C245.172 56.5938 245.641 56.6771 246.078 56.8438C246.536 56.9896 246.932 57.2188 247.266 57.5312C247.62 57.8229 247.901 58.1771 248.109 58.5938C248.318 59.0104 248.422 59.4896 248.422 60.0312C248.422 60.4896 248.234 60.8125 247.859 61C247.505 61.1875 247.099 61.2812 246.641 61.2812H246.328L244.984 59.9375C244.943 59.9375 244.911 59.9271 244.891 59.9062C244.849 59.9062 244.807 59.9062 244.766 59.9062C244.745 59.8854 244.714 59.875 244.672 59.875C243.943 59.875 243.37 60.0833 242.953 60.5C242.557 60.8958 242.255 61.3958 242.047 62C241.839 62.5833 241.703 63.2083 241.641 63.875C241.599 64.5208 241.578 65.1146 241.578 65.6562C241.578 66.0729 241.62 66.5 241.703 66.9375C241.786 67.3542 241.88 67.7708 241.984 68.1875C242.089 68.5833 242.182 69 242.266 69.4375C242.349 69.8542 242.391 70.2917 242.391 70.75C242.391 71.625 241.922 72.0625 240.984 72.0625C240.464 72.0625 239.922 71.7917 239.359 71.25C238.797 70.6875 238.234 69.9792 237.672 69.125C237.13 68.2708 236.609 67.3333 236.109 66.3125C235.609 65.2708 235.172 64.2604 234.797 63.2812C234.422 62.3021 234.12 61.4167 233.891 60.625C233.682 59.8333 233.578 59.25 233.578 58.875Z" fill="white" fill-opacity="0.95"/>
<path d="M264.391 48.6875C264.641 47.4167 265.099 46.4167 265.766 45.6875C266.432 44.9375 267.193 44.4271 268.047 44.1562C268.922 43.8854 269.849 43.8229 270.828 43.9688C271.828 44.0938 272.766 44.3958 273.641 44.875C274.536 45.3542 275.318 45.9792 275.984 46.75C276.651 47.5 277.12 48.3646 277.391 49.3438C277.661 50.3021 277.661 51.3438 277.391 52.4688C277.12 53.5938 276.505 54.75 275.547 55.9375C276.297 56.2083 276.995 56.4792 277.641 56.75C278.286 57.0208 278.828 57.3542 279.266 57.75C279.724 58.1458 280.078 58.625 280.328 59.1875C280.578 59.75 280.703 60.4479 280.703 61.2812C280.703 61.9688 280.578 62.6979 280.328 63.4688C280.078 64.2396 279.724 65 279.266 65.75C278.828 66.5 278.307 67.2188 277.703 67.9062C277.12 68.5729 276.484 69.1667 275.797 69.6875C275.109 70.2083 274.401 70.625 273.672 70.9375C272.964 71.2292 272.266 71.375 271.578 71.375C271.12 71.375 270.672 71.0833 270.234 70.5C269.797 69.9167 269.37 69.1458 268.953 68.1875C268.536 67.2292 268.13 66.125 267.734 64.875C267.339 63.625 266.974 62.3333 266.641 61C266.307 59.6458 266.005 58.3125 265.734 57C265.464 55.6667 265.224 54.4375 265.016 53.3125C264.828 52.1875 264.672 51.2188 264.547 50.4062C264.443 49.5729 264.391 49 264.391 48.6875ZM269.953 62.2188C269.953 62.5729 270.036 63.0417 270.203 63.625C270.37 64.2083 270.578 64.7917 270.828 65.375C271.099 65.9583 271.391 66.5 271.703 67C272.016 67.4792 272.349 67.8021 272.703 67.9688C272.995 68.1354 273.339 68.125 273.734 67.9375C274.13 67.7292 274.526 67.4167 274.922 67C275.339 66.5625 275.734 66.0729 276.109 65.5312C276.484 64.9688 276.818 64.4167 277.109 63.875C277.422 63.3333 277.661 62.8333 277.828 62.375C278.016 61.8958 278.109 61.5312 278.109 61.2812C278.109 60.7396 278.036 60.3021 277.891 59.9688C277.745 59.6146 277.526 59.3333 277.234 59.125C276.964 58.9167 276.63 58.7708 276.234 58.6875C275.859 58.6042 275.443 58.5625 274.984 58.5625C274.464 58.5625 273.911 58.6458 273.328 58.8125C272.745 58.9792 272.203 59.2188 271.703 59.5312C271.224 59.8438 270.807 60.2292 270.453 60.6875C270.12 61.1458 269.953 61.6562 269.953 62.2188ZM267.953 51.5938C267.953 51.9688 267.943 52.4375 267.922 53C267.901 53.5417 267.901 54.1042 267.922 54.6875C267.943 55.2708 268.005 55.8542 268.109 56.4375C268.214 57.0208 268.401 57.5208 268.672 57.9375C269.693 57.75 270.578 57.3958 271.328 56.875C272.099 56.3542 272.714 55.75 273.172 55.0625C273.651 54.3542 273.995 53.6042 274.203 52.8125C274.411 52.0208 274.484 51.25 274.422 50.5C274.38 49.75 274.203 49.0625 273.891 48.4375C273.599 47.8125 273.182 47.3333 272.641 47C272.099 46.6458 271.443 46.4688 270.672 46.4688C269.901 46.4688 269.016 46.7188 268.016 47.2188C268.016 47.3854 268.005 47.6771 267.984 48.0938C267.984 48.5104 267.974 48.9479 267.953 49.4062C267.953 49.8646 267.953 50.3021 267.953 50.7188C267.953 51.1354 267.953 51.4271 267.953 51.5938Z" fill="white" fill-opacity="0.95"/>
<path d="M282.703 63.3125C282.703 62.1875 282.839 61.0625 283.109 59.9375C283.38 58.8125 283.807 57.8021 284.391 56.9062C284.995 56.0104 285.766 55.2812 286.703 54.7188C287.661 54.1562 288.818 53.875 290.172 53.875C290.943 53.875 291.62 54.0208 292.203 54.3125C292.786 54.5833 293.276 54.9479 293.672 55.4062C294.068 55.8646 294.359 56.4062 294.547 57.0312C294.755 57.6354 294.859 58.2708 294.859 58.9375C294.859 60 294.609 61.0312 294.109 62.0312C293.63 63.0312 292.974 63.9167 292.141 64.6875C291.328 65.4375 290.391 66.0104 289.328 66.4062C288.266 66.7812 287.182 66.8646 286.078 66.6562C286.099 67.2604 286.297 67.75 286.672 68.125C287.068 68.4792 287.536 68.75 288.078 68.9375C288.62 69.125 289.182 69.25 289.766 69.3125C290.349 69.3542 290.87 69.375 291.328 69.375C291.807 69.375 292.255 69.3333 292.672 69.25C293.089 69.1667 293.505 69.0729 293.922 68.9688C294.339 68.8646 294.755 68.7708 295.172 68.6875C295.609 68.6042 296.068 68.5625 296.547 68.5625C296.734 68.5625 296.922 68.5729 297.109 68.5938C297.297 68.6146 297.474 68.6667 297.641 68.75C297.807 68.8125 297.943 68.9271 298.047 69.0938C298.151 69.2396 298.203 69.4271 298.203 69.6562C298.203 70.0521 298.057 70.3854 297.766 70.6562C297.474 70.9062 297.099 71.125 296.641 71.3125C296.203 71.5 295.714 71.6458 295.172 71.75C294.63 71.8333 294.099 71.9062 293.578 71.9688C293.078 72.0104 292.609 72.0312 292.172 72.0312C291.755 72.0521 291.443 72.0625 291.234 72.0625C289.901 72.0625 288.703 71.8542 287.641 71.4375C286.578 71 285.682 70.4062 284.953 69.6562C284.224 68.8854 283.661 67.9688 283.266 66.9062C282.891 65.8229 282.703 64.625 282.703 63.3125ZM286.016 61.2812C286.016 62.0104 286.109 62.5417 286.297 62.875C286.505 63.2083 286.995 63.375 287.766 63.375C288.307 63.375 288.839 63.2812 289.359 63.0938C289.88 62.8854 290.349 62.6042 290.766 62.25C291.203 61.8958 291.547 61.4792 291.797 61C292.047 60.5208 292.172 60 292.172 59.4375C292.172 59.125 292.141 58.8021 292.078 58.4688C292.036 58.1354 291.932 57.8333 291.766 57.5625C291.599 57.2708 291.38 57.0417 291.109 56.875C290.859 56.6875 290.526 56.5938 290.109 56.5938C289.484 56.5938 288.911 56.7396 288.391 57.0312C287.891 57.3021 287.464 57.6667 287.109 58.125C286.755 58.5625 286.484 59.0625 286.297 59.625C286.109 60.1667 286.016 60.7188 286.016 61.2812Z" fill="white" fill-opacity="0.95"/>
<path d="M300.141 61.4688C300.141 60.9271 300.276 60.5417 300.547 60.3125C300.818 60.0625 301.255 59.9375 301.859 59.9375H302.172C302.234 60.2708 302.307 60.6562 302.391 61.0938C302.474 61.5312 302.599 61.9792 302.766 62.4375C302.932 62.8958 303.13 63.3229 303.359 63.7188C303.589 64.0938 303.87 64.3958 304.203 64.625C304.224 63.8958 304.401 63.1979 304.734 62.5312C305.089 61.8438 305.516 61.2396 306.016 60.7188C306.536 60.1771 307.099 59.7292 307.703 59.375C308.328 59 308.943 58.75 309.547 58.625H310.234C311.234 58.625 312.089 58.8542 312.797 59.3125C313.505 59.75 314.089 60.3333 314.547 61.0625C315.026 61.7708 315.391 62.5833 315.641 63.5C315.891 64.4167 316.078 65.3542 316.203 66.3125C316.349 67.25 316.432 68.1667 316.453 69.0625C316.495 69.9375 316.516 70.6875 316.516 71.3125H314.234C314.109 70.0625 313.953 68.8646 313.766 67.7188C313.703 67.2604 313.62 66.7812 313.516 66.2812C313.411 65.7604 313.297 65.2812 313.172 64.8438C313.047 64.3854 312.911 63.9688 312.766 63.5938C312.62 63.1979 312.453 62.8646 312.266 62.5938C312.182 62.5104 312.068 62.3958 311.922 62.25C311.797 62.1042 311.661 61.9583 311.516 61.8125C311.37 61.6667 311.234 61.5417 311.109 61.4375C310.984 61.3333 310.911 61.2812 310.891 61.2812C310.266 61.1146 309.724 61.2396 309.266 61.6562C308.807 62.0521 308.401 62.5938 308.047 63.2812C307.693 63.9688 307.401 64.75 307.172 65.625C306.964 66.5 306.786 67.3438 306.641 68.1562C306.495 68.9479 306.391 69.6458 306.328 70.25C306.266 70.8333 306.224 71.1875 306.203 71.3125C305.682 71.6875 305.193 71.8021 304.734 71.6562C304.276 71.4896 303.839 71.1562 303.422 70.6562C303.026 70.1562 302.661 69.5312 302.328 68.7812C302.016 68.0312 301.724 67.2396 301.453 66.4062C301.182 65.5521 300.932 64.6979 300.703 63.8438C300.495 62.9896 300.307 62.1979 300.141 61.4688Z" fill="white" fill-opacity="0.95"/>
<path d="M318.234 63.3125C318.234 62.1875 318.37 61.0625 318.641 59.9375C318.911 58.8125 319.339 57.8021 319.922 56.9062C320.526 56.0104 321.297 55.2812 322.234 54.7188C323.193 54.1562 324.349 53.875 325.703 53.875C326.474 53.875 327.151 54.0208 327.734 54.3125C328.318 54.5833 328.807 54.9479 329.203 55.4062C329.599 55.8646 329.891 56.4062 330.078 57.0312C330.286 57.6354 330.391 58.2708 330.391 58.9375C330.391 60 330.141 61.0312 329.641 62.0312C329.161 63.0312 328.505 63.9167 327.672 64.6875C326.859 65.4375 325.922 66.0104 324.859 66.4062C323.797 66.7812 322.714 66.8646 321.609 66.6562C321.63 67.2604 321.828 67.75 322.203 68.125C322.599 68.4792 323.068 68.75 323.609 68.9375C324.151 69.125 324.714 69.25 325.297 69.3125C325.88 69.3542 326.401 69.375 326.859 69.375C327.339 69.375 327.786 69.3333 328.203 69.25C328.62 69.1667 329.036 69.0729 329.453 68.9688C329.87 68.8646 330.286 68.7708 330.703 68.6875C331.141 68.6042 331.599 68.5625 332.078 68.5625C332.266 68.5625 332.453 68.5729 332.641 68.5938C332.828 68.6146 333.005 68.6667 333.172 68.75C333.339 68.8125 333.474 68.9271 333.578 69.0938C333.682 69.2396 333.734 69.4271 333.734 69.6562C333.734 70.0521 333.589 70.3854 333.297 70.6562C333.005 70.9062 332.63 71.125 332.172 71.3125C331.734 71.5 331.245 71.6458 330.703 71.75C330.161 71.8333 329.63 71.9062 329.109 71.9688C328.609 72.0104 328.141 72.0312 327.703 72.0312C327.286 72.0521 326.974 72.0625 326.766 72.0625C325.432 72.0625 324.234 71.8542 323.172 71.4375C322.109 71 321.214 70.4062 320.484 69.6562C319.755 68.8854 319.193 67.9688 318.797 66.9062C318.422 65.8229 318.234 64.625 318.234 63.3125ZM321.547 61.2812C321.547 62.0104 321.641 62.5417 321.828 62.875C322.036 63.2083 322.526 63.375 323.297 63.375C323.839 63.375 324.37 63.2812 324.891 63.0938C325.411 62.8854 325.88 62.6042 326.297 62.25C326.734 61.8958 327.078 61.4792 327.328 61C327.578 60.5208 327.703 60 327.703 59.4375C327.703 59.125 327.672 58.8021 327.609 58.4688C327.568 58.1354 327.464 57.8333 327.297 57.5625C327.13 57.2708 326.911 57.0417 326.641 56.875C326.391 56.6875 326.057 56.5938 325.641 56.5938C325.016 56.5938 324.443 56.7396 323.922 57.0312C323.422 57.3021 322.995 57.6667 322.641 58.125C322.286 58.5625 322.016 59.0625 321.828 59.625C321.641 60.1667 321.547 60.7188 321.547 61.2812Z" fill="white" fill-opacity="0.95"/>
<path d="M348.391 74.9062C347.953 74.0938 347.464 73.0833 346.922 71.875C346.401 70.6458 345.859 69.375 345.297 68.0625C344.734 66.7292 344.141 65.4271 343.516 64.1562C342.911 62.8854 342.297 61.7812 341.672 60.8438C341.422 60.6562 341.078 60.5417 340.641 60.5C340.203 60.4583 339.745 60.4479 339.266 60.4688C338.786 60.4688 338.307 60.4583 337.828 60.4375C337.37 60.3958 336.964 60.2812 336.609 60.0938C336.276 59.9062 336.026 59.6146 335.859 59.2188C335.693 58.8229 335.661 58.25 335.766 57.5H341.016C341.12 56.3333 341.297 55.1771 341.547 54.0312C341.797 52.8854 342.13 51.7917 342.547 50.75C342.984 49.7083 343.505 48.7396 344.109 47.8438C344.714 46.9479 345.443 46.1771 346.297 45.5312C347.151 44.8854 348.13 44.375 349.234 44C350.359 43.625 351.63 43.4375 353.047 43.4375C353.547 43.4375 354.047 43.5625 354.547 43.8125C355.047 44.0417 355.495 44.3542 355.891 44.75C356.286 45.1458 356.599 45.5938 356.828 46.0938C357.078 46.5938 357.203 47.0938 357.203 47.5938C356.807 47.5938 356.453 47.5208 356.141 47.375C355.828 47.2083 355.526 47.0312 355.234 46.8438C354.943 46.6354 354.63 46.4479 354.297 46.2812C353.964 46.0938 353.589 46 353.172 46C351.922 46 350.755 46.25 349.672 46.75C348.609 47.25 347.672 47.9167 346.859 48.75C346.068 49.5833 345.443 50.5521 344.984 51.6562C344.526 52.7604 344.297 53.9271 344.297 55.1562C344.297 55.2396 344.297 55.3958 344.297 55.625C344.318 55.8333 344.328 56.0625 344.328 56.3125C344.328 56.5625 344.328 56.8021 344.328 57.0312C344.349 57.2604 344.359 57.4167 344.359 57.5C345.13 57.75 345.995 57.9375 346.953 58.0625C347.911 58.1875 348.87 58.2708 349.828 58.3125C350.807 58.3333 351.745 58.3229 352.641 58.2812C353.557 58.2396 354.37 58.1875 355.078 58.125C355.141 58.1875 355.255 58.3021 355.422 58.4688C355.589 58.6354 355.682 58.7604 355.703 58.8438C355.703 58.9062 355.714 58.9479 355.734 58.9688C355.776 59.0938 355.797 59.1562 355.797 59.1562C355.797 59.5938 355.568 59.9375 355.109 60.1875C354.651 60.4375 354.068 60.625 353.359 60.75C352.651 60.8542 351.859 60.9271 350.984 60.9688C350.13 61.0104 349.297 61.0521 348.484 61.0938C347.693 61.1146 346.974 61.1562 346.328 61.2188C345.703 61.2604 345.266 61.3542 345.016 61.5C345.286 62.75 345.766 63.9583 346.453 65.125C347.161 66.2917 347.88 67.4583 348.609 68.625C349.339 69.7917 349.984 70.9688 350.547 72.1562C351.109 73.3438 351.391 74.5625 351.391 75.8125C351.307 75.8125 351.109 75.8125 350.797 75.8125C350.505 75.8333 350.193 75.8229 349.859 75.7812C349.526 75.7396 349.203 75.6458 348.891 75.5C348.599 75.375 348.432 75.1771 348.391 74.9062Z" fill="white" fill-opacity="0.95"/>
<path d="M359.047 60.2812C359.047 60.1562 359.047 59.9583 359.047 59.6875C359.068 59.3958 359.078 59.0938 359.078 58.7812C359.099 58.4688 359.109 58.1667 359.109 57.875C359.13 57.5833 359.141 57.375 359.141 57.25C359.37 56.9167 359.661 56.6458 360.016 56.4375C360.391 56.2292 360.766 56.0625 361.141 55.9375C361.203 57.0625 361.38 58.2604 361.672 59.5312C361.964 60.8021 362.276 62.0833 362.609 63.375C362.943 64.6458 363.234 65.9062 363.484 67.1562C363.755 68.4062 363.891 69.5729 363.891 70.6562C363.891 71.5938 363.411 72.0625 362.453 72.0625C361.87 72.0625 361.38 71.8229 360.984 71.3438C360.589 70.8646 360.266 70.2604 360.016 69.5312C359.786 68.7812 359.599 67.9583 359.453 67.0625C359.307 66.1458 359.203 65.25 359.141 64.375C359.099 63.5 359.068 62.6979 359.047 61.9688C359.047 61.2396 359.047 60.6771 359.047 60.2812ZM359.484 48.5625C359.88 48.7292 360.214 49 360.484 49.375C360.755 49.75 360.87 50.0938 360.828 50.4062C360.807 50.6979 360.578 50.9062 360.141 51.0312C359.703 51.1354 358.974 51.0104 357.953 50.6562C357.953 50.0938 358.057 49.6042 358.266 49.1875C358.495 48.7708 358.901 48.5625 359.484 48.5625Z" fill="white" fill-opacity="0.95"/>
<path d="M364.422 56.25C364.422 56.1875 364.432 56.1354 364.453 56.0938C364.453 56.0521 364.464 56 364.484 55.9375C364.568 55.8333 364.693 55.6979 364.859 55.5312C365.026 55.3646 365.13 55.2812 365.172 55.2812H371.453C371.453 55.0521 371.422 54.6875 371.359 54.1875C371.297 53.6875 371.234 53.1354 371.172 52.5312C371.13 51.9271 371.12 51.3021 371.141 50.6562C371.161 49.9896 371.245 49.3958 371.391 48.875C371.557 48.3333 371.807 47.8958 372.141 47.5625C372.495 47.2083 372.984 47.0312 373.609 47.0312C373.609 49.1354 373.755 50.8229 374.047 52.0938C374.339 53.3646 374.724 54.3438 375.203 55.0312C375.703 55.7188 376.266 56.1667 376.891 56.375C377.516 56.5833 378.151 56.6771 378.797 56.6562C379.464 56.6146 380.109 56.5104 380.734 56.3438C381.359 56.1771 381.911 56.0625 382.391 56C382.891 55.9375 383.286 55.9896 383.578 56.1562C383.87 56.3021 384.016 56.6667 384.016 57.25C384.016 57.6875 383.911 58 383.703 58.1875C383.516 58.375 383.141 58.5208 382.578 58.625C382.411 58.6458 382.13 58.6875 381.734 58.75C381.359 58.7917 380.932 58.8333 380.453 58.875C379.974 58.9167 379.464 58.9688 378.922 59.0312C378.38 59.0729 377.87 59.1146 377.391 59.1562C376.911 59.1979 376.474 59.2292 376.078 59.25C375.682 59.25 375.391 59.25 375.203 59.25C375.203 59.3542 375.193 59.5312 375.172 59.7812C375.151 60.0312 375.141 60.1979 375.141 60.2812C375.141 61.1979 375.286 62.0938 375.578 62.9688C375.87 63.8229 376.182 64.6771 376.516 65.5312C376.87 66.3854 377.193 67.2396 377.484 68.0938C377.776 68.9479 377.922 69.8333 377.922 70.75C377.922 70.9167 377.901 71.0938 377.859 71.2812C377.839 71.4479 377.776 71.6042 377.672 71.75C377.589 71.875 377.453 71.9688 377.266 72.0312C377.099 72.1146 376.859 72.1042 376.547 72C375.755 71.7917 375.161 71.3438 374.766 70.6562C374.391 69.9688 374.109 69.1562 373.922 68.2188C373.734 67.2604 373.609 66.25 373.547 65.1875C373.484 64.125 373.38 63.1354 373.234 62.2188C373.109 61.2812 372.901 60.4896 372.609 59.8438C372.318 59.1771 371.849 58.7708 371.203 58.625L365.172 57.25C365.089 57.25 364.964 57.1667 364.797 57C364.63 56.8125 364.526 56.6771 364.484 56.5938C364.464 56.5521 364.453 56.5 364.453 56.4375C364.432 56.3958 364.422 56.3333 364.422 56.25Z" fill="white" fill-opacity="0.95"/>
<path d="M428.138 116.493C425.852 123.738 426.374 128.137 430.056 132.45C433.515 136.49 434.926 135.004 433.031 130.287C429.199 120.659 429.693 115.549 435.008 115.4C437.763 115.347 454.269 123.607 454.269 123.607C455.976 124.338 456.707 126.36 455.833 128.002C452.023 135.164 446.842 140.187 439.38 136.849C437.437 135.969 436.483 136.447 437.488 137.77C442.791 144.725 455.193 139.939 460.394 128.941C462.731 123.974 453.847 118.126 433.015 110.898C430.295 110.012 430.125 110.195 428.138 116.493Z" fill="white"/>
<path d="M454.656 111.555C455.706 112.682 455.854 113.313 455.395 114.709C454.392 117.593 456.582 118.499 457.821 115.765L458.751 113.715L461.736 115.068C466.341 117.154 467.123 114.95 462.825 112.092L460.486 110.555L461.353 108.26C462.428 105.408 461.55 103.71 459.459 104.497C458.989 104.674 458.244 105.55 457.821 106.486C457.136 107.997 456.927 108.075 455.56 107.456C452.61 106.119 452.074 108.738 454.656 111.555Z" fill="white"/>
<path d="M466.972 99.8787C461.192 96.1755 459.64 96.7296 463.172 101.279C467.3 106.618 470.998 119.22 468.26 128.039C464.893 138.914 451.207 146.63 440.054 143.875C423.014 139.665 415.567 115.911 427.391 103.405C435.053 95.3003 447.02 90.7073 452.736 95.0315C456.066 97.5378 457.266 95.6538 454.597 93.7938C453.109 92.7725 450.731 91.6084 448.59 91.0716C428.845 85.9399 408.539 109.605 416.405 128.605C425.068 149.484 451.614 154.533 469.161 138.68C479.72 129.156 478.476 107.216 466.972 99.8787Z" fill="white"/>
<path d="M437.468 103.463C439.303 104.294 439.398 104.467 438.779 105.834C437.148 109.431 439.406 111.625 441.531 108.469C443.387 105.711 443.56 105.616 445.467 106.48C447.985 107.621 448.414 105.908 446.082 104.07C444.587 102.873 444.488 102.611 445.189 101.064C446.738 97.6469 445.208 95.0895 442.848 97.1416C442.198 97.7143 441.441 98.7153 441.131 99.3988C440.609 100.55 440.469 100.573 438.765 99.4539C435.157 97.0818 433.296 101.572 437.468 103.463Z" fill="white"/>
<path d="M50.1303 240.8C48.8973 240.32 47.6833 241.012 46.6133 242.796C45.1283 245.23 45.2555 245.981 47.0547 245.549C48.6706 245.167 51.2242 241.22 50.1303 240.8Z" fill="white"/>
<path d="M48.9823 236.959C48.8232 236.363 46.5272 236.314 45.7775 236.907C44.5162 237.882 38.198 246.296 37.6864 246.678C36.4358 247.601 38.8894 248.149 40.3768 247.285C41.7328 246.481 49.1537 237.6 48.9823 236.959Z" fill="white"/>
<path d="M36.1336 215.331C37.858 214.895 38.157 214.177 36.8414 213.571C34.2852 212.364 32.4995 212.203 31.3635 213.096C30.0167 214.118 33.8074 215.903 36.1336 215.331Z" fill="white"/>
<path d="M63.5627 210.604C64.806 210.296 66.7343 208.234 66.407 207.561C65.8122 206.345 63.2462 207.031 62.2145 208.681C61.0926 210.454 61.5405 211.119 63.5627 210.604Z" fill="white"/>
<path d="M41.0409 213.307C43.3962 213.12 42.942 212.063 39.117 208.863C32.0674 202.966 29.8594 201.592 28.7798 202.421C27.3246 203.497 38.5816 213.474 41.0409 213.307Z" fill="white"/>
<path d="M74.9636 200.537C73.9695 201.318 67.0887 209.097 65.4386 211.281C65.0783 211.77 66.8305 211.989 67.9745 211.585C69.1184 211.181 69.4925 210.836 73.3626 206.488C75.645 203.914 77.7641 201.556 78.0526 201.258C79.4267 199.786 76.7073 199.163 74.9636 200.537Z" fill="white"/>
<path d="M73.7363 232.505C72.193 231.69 70.3034 231.508 69.9569 232.14C69.7387 232.518 70.576 233.079 71.922 233.432C74.0884 234.006 75.3605 233.347 73.7363 232.505Z" fill="white"/>
<path d="M67.239 220.961C68.3047 219.989 68.2329 219.812 66.468 218.811C61.0635 215.763 54.9062 207.05 51.5699 197.779C50.36 194.445 46.3123 192.066 46.7901 200.652C47.3791 211.491 45.0846 223.297 42.0046 225.274C39.9323 226.613 40.5945 228.081 42.9772 227.444C46.5053 226.501 49.5097 229.11 52.8433 236.074C55.0101 240.601 58.4934 247.574 58.7349 247.927C59.3235 248.751 62.8601 249.402 62.0565 243.087C60.9002 234.167 63.1623 224.628 67.239 220.961ZM62.9939 220.966C59.93 224.657 57.5853 230.855 57.6821 235.076C57.6979 236.053 57.4091 235.983 56.9259 234.91C54.5019 229.421 51.6821 226.493 47.9911 225.54L46.5642 225.16C48.9266 220.773 50.0791 219.115 51.034 207.348C51.072 206.847 51.1132 206.91 52.6787 209.461C55.6217 214.321 58.5501 217.564 61.7162 219.491C63.3084 220.49 63.3496 220.552 62.9939 220.966Z" fill="white"/>
<path d="M66.2853 234.937C65.7249 235.504 66.0062 235.822 68.6147 237.776C73.1853 241.194 75.338 241.993 76.1607 240.57C76.5468 239.903 76.1433 239.495 72.8258 237.092C68.7167 234.116 67.5082 233.727 66.2853 234.937Z" fill="white"/>
</svg>
