<svg fill="none" height="60" viewBox="0 0 60 60" width="60" xmlns="http://www.w3.org/2000/svg"><path d="m30 60c16.5685 0 30-13.4315 30-30s-13.4315-30-30-30-30 13.4315-30 30 13.4315 30 30 30z" fill="#ffc72e"/><path d="m30 54c13.2548 0 24-10.7452 24-24s-10.7452-24-24-24-24 10.7452-24 24 10.7452 24 24 24z" fill="#e9b10c" opacity=".34"/><path d="m46.9632 12.9673c9.367 9.367 9.367 24.5825 0 33.9495s-24.5825 9.367-33.9495 0z" fill="#e9b10c" opacity=".34"/><path d="m46.3108 35.196-7.4097-5.732.1398 1.1185c.0699.4427.1165.9087.1165 1.3514 0 .3961-.0234.7922-.07 1.1884l5.4758 4.2407c.5126.3728.8621.9088 1.0019 1.5146.1399.6058.0233 1.2583-.2796 1.7942s-.8155.9553-1.398 1.1417c-.6059.1864-1.235.1398-1.8175-.1165l-8.2486-3.4252c1.1185-.6292 2.0505-1.5612 2.703-2.6563.6524-1.1185.9786-2.3767.9786-3.6583 0-.466-.0466-.932-.1398-1.3747l-1.8874-14.2136c-.1631-1.2816-.7922-2.4466-1.7475-3.2855-.9554-.8388-2.1904-1.3048-3.4719-1.3048-1.2816 0-2.5165.466-3.4719 1.3048-.9553.8389-1.5844 2.0272-1.7475 3.2855l-1.235 9.3203.8855-.6757c.3495-.2796.7223-.5359 1.1184-.7689.3262-.1864.6757-.3728 1.0485-.5126l.9088-6.8971c.0699-.6291.3495-1.2117.8155-1.6311s1.0719-.6524 1.6777-.6524 1.235.233 1.6777.6524c.466.4194.7456 1.002.8155 1.6311l1.1884 8.8776c-1.3282-.7689-2.8428-1.1184-4.3573-.9786-1.5146.1398-2.9593.7689-4.101 1.7942l-11.2777 8.7145c-1.0252.769-1.7242 1.9107-1.9805 3.169-.2564 1.2582-.0467 2.5631.6058 3.6815.6291 1.1185 1.6543 1.9573 2.866 2.3767 1.2116.4194 2.5398.3729 3.7282-.1398l8.6446-3.5883-1.0253-.4194c-.4194-.1631-.8388-.3729-1.2116-.5826-.3262-.1864-.6524-.4194-.9786-.6524l-6.4078 2.6563c-.5592.2563-1.2116.3029-1.8175.1165-.6058-.1864-1.0951-.6058-1.4213-1.1417-.3029-.5359-.4194-1.1884-.2796-1.7942s.4893-1.1417 1.0019-1.5146l7.0835-5.4757v.0466c0 1.4913.4427 2.9359 1.3048 4.1476.8389 1.2116 2.0272 2.1437 3.4253 2.6563l13.3514 5.5223c1.1884.4893 2.4933.536 3.7049.1165 1.2117-.4194 2.2369-1.2582 2.866-2.3767.6291-1.1184.8621-2.4233.6058-3.6815-.2563-1.2583-.9553-2.3767-1.9572-3.169zm-20.5515-3.2621c0-.8854.2563-1.7476.7456-2.4932.4894-.7456 1.1884-1.3049 2.0039-1.6544.8156-.3495 1.7243-.4194 2.5864-.2563.8622.1631 1.6544.6059 2.2835 1.235s1.0486 1.4213 1.2117 2.3068c.1631.8621.0932 1.7708-.2563 2.5864-.3496.8155-.9088 1.5145-1.6544 2.0039-.7457.4893-1.6078.7456-2.4932.7456-.5825 0-1.165-.1165-1.701-.3495-.5359-.233-1.0252-.5592-1.4447-.9787-.4194-.4194-.7456-.9087-.9786-1.4679-.233-.5359-.3495-1.1418-.3495-1.7243z" fill="#fff"/></svg>